<?xml version="1.0" encoding="UTF-8"?>
<svg xmlns="http://www.w3.org/2000/svg" xmlns:xlink="http://www.w3.org/1999/xlink" width="121px" height="32px" viewBox="0 0 120 32" version="1.1">
<g id="surface1">
<path style=" stroke:none;fill-rule:nonzero;fill:rgb(100%,56.078431%,15.686275%);fill-opacity:1;" d="M 104.660156 27.207031 L 100.167969 27.207031 L 100.167969 31.976562 L 104.660156 31.976562 Z M 104.660156 27.207031 "/>
<path style=" stroke:none;fill-rule:nonzero;fill:rgb(74.509804%,47.058824%,100%);fill-opacity:1;" d="M 79.792969 23.816406 L 79.792969 24.347656 L 84.3125 24.347656 L 84.3125 16.71875 C 84.3125 18.808594 83.472656 20.804688 81.992188 22.273438 C 81.351562 22.917969 80.609375 23.4375 79.792969 23.816406 Z M 79.792969 23.816406 "/>
<path style=" stroke:none;fill-rule:nonzero;fill:rgb(100%,31.372549%,64.313725%);fill-opacity:1;" d="M 32.246094 19.84375 L 27.566406 19.84375 L 27.566406 24.335938 L 32.246094 24.335938 Z M 32.246094 19.84375 "/>
<path style=" stroke:none;fill-rule:nonzero;fill:rgb(1.568627%,88.235294%,100%);fill-opacity:1;" d="M 120 20.324219 L 115.53125 20.324219 L 115.53125 24.828125 L 120 24.828125 Z M 120 20.324219 "/>
<path style=" stroke:none;fill-rule:nonzero;fill:rgb(74.509804%,47.058824%,100%);fill-opacity:1;" d="M 13.632812 7.234375 L 13.632812 6.703125 L 9.113281 6.703125 L 9.113281 14.332031 C 9.113281 12.242188 9.953125 10.246094 11.433594 8.777344 C 12.074219 8.132812 12.828125 7.613281 13.632812 7.234375 Z M 13.632812 7.234375 "/>
<path style=" stroke:none;fill-rule:nonzero;fill:rgb(3.137255%,7.058824%,29.803922%);fill-opacity:1;" d="M 100.167969 7.742188 C 98.824219 6.945312 97.269531 6.476562 95.597656 6.476562 C 90.652344 6.476562 86.625 10.535156 86.625 15.519531 C 86.625 20.503906 90.652344 24.5625 95.597656 24.5625 C 97.269531 24.5625 98.824219 24.109375 100.167969 23.296875 L 100.167969 27.179688 L 104.660156 27.179688 L 104.660156 6.703125 L 100.167969 6.703125 Z M 95.597656 20.109375 C 93.085938 20.109375 91.054688 18.050781 91.054688 15.53125 C 91.054688 13.003906 93.101562 10.953125 95.597656 10.953125 C 98.097656 10.953125 100.140625 13.015625 100.140625 15.53125 C 100.140625 18.050781 98.109375 20.109375 95.597656 20.109375 Z M 95.597656 20.109375 "/>
<path style=" stroke:none;fill-rule:nonzero;fill:rgb(3.137255%,7.058824%,29.803922%);fill-opacity:1;" d="M 97.191406 13.925781 C 96.878906 13.609375 96.476562 13.394531 96.039062 13.304688 C 95.597656 13.21875 95.144531 13.269531 94.746094 13.433594 C 94.332031 13.609375 93.980469 13.886719 93.738281 14.265625 C 93.488281 14.632812 93.363281 15.078125 93.363281 15.519531 C 93.363281 16.113281 93.601562 16.695312 94.015625 17.125 C 94.441406 17.554688 95.007812 17.785156 95.609375 17.785156 C 96.050781 17.785156 96.488281 17.65625 96.851562 17.402344 C 97.21875 17.152344 97.507812 16.796875 97.679688 16.390625 C 97.855469 15.976562 97.894531 15.519531 97.808594 15.089844 C 97.71875 14.648438 97.507812 14.242188 97.191406 13.925781 Z M 97.191406 13.925781 "/>
<path style=" stroke:none;fill-rule:nonzero;fill:rgb(3.137255%,7.058824%,29.803922%);fill-opacity:1;" d="M 50.597656 0.277344 L 46.015625 0.277344 L 46.015625 16.960938 C 46.015625 19.046875 46.871094 21.035156 48.375 22.515625 C 49.882812 23.980469 51.929688 24.816406 54.0625 24.816406 L 54.0625 20.3125 C 53.144531 20.3125 52.269531 19.957031 51.628906 19.328125 C 50.976562 18.695312 50.609375 17.835938 50.609375 16.949219 L 50.609375 11.230469 L 55.957031 11.230469 L 55.957031 6.703125 L 50.609375 6.703125 L 50.609375 0.277344 Z M 50.597656 0.277344 "/>
<path style=" stroke:none;fill-rule:nonzero;fill:rgb(3.137255%,7.058824%,29.803922%);fill-opacity:1;" d="M 62.800781 6.703125 L 58.304688 6.703125 L 58.304688 24.335938 L 62.800781 24.335938 L 62.800781 13.949219 C 62.914062 13.253906 63.226562 12.597656 63.742188 12.089844 C 64.367188 11.472656 65.222656 11.117188 66.113281 11.117188 L 66.113281 6.703125 C 64.957031 6.703125 63.828125 6.957031 62.800781 7.4375 Z M 62.800781 6.703125 "/>
<path style=" stroke:none;fill-rule:nonzero;fill:rgb(3.137255%,7.058824%,29.803922%);fill-opacity:1;" d="M 79.796875 16.722656 C 79.796875 17.617188 79.429688 18.480469 78.804688 19.113281 C 78.164062 19.742188 77.296875 20.097656 76.394531 20.097656 C 75.488281 20.097656 74.625 19.742188 73.984375 19.113281 C 73.34375 18.480469 72.992188 17.617188 72.992188 16.722656 L 72.992188 6.703125 L 68.472656 6.703125 L 68.472656 16.722656 C 68.472656 18.808594 69.3125 20.804688 70.796875 22.273438 C 72.277344 23.753906 74.296875 24.574219 76.394531 24.574219 C 77.585938 24.574219 78.742188 24.308594 79.796875 23.816406 C 80.597656 23.4375 81.351562 22.917969 81.992188 22.273438 C 83.472656 20.792969 84.3125 18.796875 84.3125 16.722656 L 84.3125 6.703125 L 79.796875 6.703125 Z M 79.796875 16.722656 "/>
<path style=" stroke:none;fill-rule:nonzero;fill:rgb(3.137255%,7.058824%,29.803922%);fill-opacity:1;" d="M 5.210938 8.183594 C 4.53125 8.460938 3.804688 8.613281 3.0625 8.601562 C 2.335938 8.601562 1.605469 8.460938 0.929688 8.183594 L 0.839844 8.183594 L 0.839844 24.335938 L 5.335938 24.335938 L 5.335938 8.132812 L 5.257812 8.171875 Z M 5.210938 8.183594 "/>
<path style=" stroke:none;fill-rule:nonzero;fill:rgb(3.137255%,7.058824%,29.803922%);fill-opacity:1;" d="M 5.359375 0.910156 C 5.085938 0.632812 4.746094 0.417969 4.382812 0.277344 C 4.003906 0.113281 3.601562 0.0234375 3.1875 0.0234375 C 2.371094 0.0390625 1.59375 0.355469 1.003906 0.910156 C 0.726562 1.1875 0.503906 1.503906 0.351562 1.859375 C 0.203125 2.226562 0.113281 2.605469 0.113281 2.996094 C 0.113281 3.402344 0.1875 3.792969 0.351562 4.160156 C 0.664062 4.882812 1.242188 5.453125 1.984375 5.753906 C 2.359375 5.90625 2.773438 5.984375 3.1875 5.984375 C 3.601562 5.984375 4.003906 5.90625 4.382812 5.753906 C 4.746094 5.601562 5.085938 5.386719 5.371094 5.121094 C 5.648438 4.84375 5.875 4.527344 6.027344 4.175781 C 6.1875 3.808594 6.277344 3.414062 6.277344 3.011719 C 6.277344 2.617188 6.1875 2.226562 6.027344 1.871094 C 5.875 1.519531 5.648438 1.1875 5.359375 0.910156 Z M 5.359375 0.910156 "/>
<path style=" stroke:none;fill-rule:nonzero;fill:rgb(3.137255%,7.058824%,29.803922%);fill-opacity:1;" d="M 41.988281 14.949219 C 41.460938 14.480469 40.859375 14.117188 40.191406 13.875 C 39.488281 13.609375 38.75 13.46875 37.996094 13.484375 L 33.265625 13.484375 C 33.113281 13.484375 32.960938 13.457031 32.824219 13.394531 C 32.6875 13.34375 32.5625 13.253906 32.460938 13.152344 C 32.347656 13.039062 32.273438 12.914062 32.210938 12.773438 C 32.148438 12.636719 32.121094 12.484375 32.121094 12.332031 C 32.121094 12.042969 32.246094 11.75 32.460938 11.535156 C 32.675781 11.320312 32.960938 11.207031 33.265625 11.207031 L 42.476562 11.207031 L 42.476562 6.703125 L 33.265625 6.703125 C 31.757812 6.703125 30.3125 7.296875 29.234375 8.335938 C 28.71875 8.855469 28.304688 9.449219 28.015625 10.117188 C 27.441406 11.523438 27.441406 13.105469 28.015625 14.507812 C 28.304688 15.179688 28.71875 15.785156 29.234375 16.304688 C 29.75 16.820312 30.363281 17.226562 31.03125 17.503906 C 31.734375 17.808594 32.484375 17.949219 33.238281 17.949219 L 37.972656 17.949219 C 38.246094 17.933594 38.523438 17.984375 38.773438 18.097656 C 38.886719 18.164062 38.976562 18.25 39.039062 18.363281 C 39.101562 18.480469 39.125 18.605469 39.101562 18.730469 C 39.101562 18.871094 39.0625 19.023438 39 19.148438 C 38.9375 19.277344 38.851562 19.402344 38.75 19.503906 C 38.648438 19.617188 38.523438 19.691406 38.386719 19.757812 C 38.246094 19.820312 38.097656 19.84375 37.945312 19.84375 L 32.234375 19.84375 L 32.234375 24.335938 L 37.945312 24.335938 C 38.710938 24.347656 39.464844 24.207031 40.167969 23.929688 C 40.832031 23.640625 41.449219 23.234375 41.960938 22.730469 C 42.476562 22.210938 42.890625 21.601562 43.179688 20.945312 C 43.480469 20.25 43.632812 19.503906 43.632812 18.746094 C 43.644531 18.035156 43.492188 17.328125 43.21875 16.671875 C 42.941406 16.023438 42.515625 15.429688 41.988281 14.949219 Z M 41.988281 14.949219 "/>
<path style=" stroke:none;fill-rule:nonzero;fill:rgb(3.137255%,7.058824%,29.803922%);fill-opacity:1;" d="M 113.097656 19.328125 C 112.445312 18.695312 112.078125 17.835938 112.078125 16.949219 L 112.078125 11.230469 L 117.664062 11.230469 L 117.664062 6.703125 L 112.078125 6.703125 L 112.078125 0.277344 L 107.496094 0.277344 L 107.496094 16.960938 C 107.496094 19.046875 108.351562 21.035156 109.859375 22.515625 C 111.363281 23.980469 113.410156 24.816406 115.542969 24.816406 L 115.542969 20.3125 C 114.613281 20.3125 113.738281 19.957031 113.097656 19.328125 Z M 113.097656 19.328125 "/>
<path style=" stroke:none;fill-rule:nonzero;fill:rgb(3.137255%,7.058824%,29.803922%);fill-opacity:1;" d="M 17.035156 6.464844 C 15.839844 6.464844 14.6875 6.730469 13.632812 7.222656 C 12.828125 7.601562 12.074219 8.121094 11.433594 8.765625 C 9.953125 10.246094 9.113281 12.242188 9.113281 14.316406 L 9.113281 24.335938 L 13.632812 24.335938 L 13.632812 14.316406 C 13.632812 13.417969 13.996094 12.558594 14.625 11.925781 C 15.261719 11.292969 16.128906 10.941406 17.035156 10.941406 C 17.9375 10.941406 18.804688 11.292969 19.445312 11.925781 C 20.082031 12.558594 20.433594 13.417969 20.433594 14.316406 L 20.433594 24.335938 L 24.953125 24.335938 L 24.953125 14.316406 C 24.953125 12.230469 24.113281 10.230469 22.632812 8.765625 C 21.152344 7.296875 19.140625 6.476562 17.035156 6.464844 Z M 17.035156 6.464844 "/>
</g>
</svg>
